<svg width="406" height="369" version="1.1" xmlns="http://www.w3.org/2000/svg" desc="Created with imagetracer.js version 1.2.6" ><path fill="rgb(0,0,0)" stroke="rgb(0,0,0)" stroke-width="1" opacity="0.9411764705882353" d="M 183.5 159 L 181.5 162 L 183.5 159 Z " /><path fill="rgb(0,0,0)" stroke="rgb(0,0,0)" stroke-width="1" opacity="0.9411764705882353" d="M 345.5 314 Q 347.8 313.3 347 315.5 L 376 358.5 L 357.5 366 L 351.5 357 L 339 358 L 336.5 367 L 319 360.5 L 345.5 314 Z M 347 340 L 343 347 L 344 349 L 350 347 L 347 340 Z " /><path fill="rgb(0,0,0)" stroke="rgb(0,0,0)" stroke-width="1" opacity="0.9411764705882353" d="M 59.5 315 L 63 315.5 L 62 316.5 Q 62.7 324.5 61 329 L 54 330 L 54 363.5 Q 53.8 364.8 47.5 364 L 37 366 L 37 343.5 L 38 342.5 L 38 332 L 30 332 L 30 318 L 36.5 317 L 47.5 317 L 48.5 316 L 58.5 316 L 59.5 315 Z " /><path fill="rgb(0,0,0)" stroke="rgb(0,0,0)" stroke-width="1" opacity="0.9411764705882353" d="M 114.5 315 L 127.5 315 Q 135.6 317.9 140 324.5 L 129.5 337 Q 126.7 332.8 120.5 332 L 116 335.5 L 113 342.5 L 117.5 350 L 122.5 350 L 130.5 344 L 142 357.5 Q 133.7 367.7 114.5 367 Q 104.5 365 100 357.5 L 96.5 349 L 96 363 L 87.5 363 L 86.5 364 L 69.5 364 L 64 365 L 64 357.5 L 63 356.5 L 63 319 L 65.5 318 L 78.5 318 L 79.5 317 Q 90 318 96 316 L 95 329.5 L 93.5 331 L 80.5 331 L 79 332.5 L 80.5 335 L 90 334 L 89 344 L 79 345 L 79.5 349 L 80.5 348 L 96 347 Q 96.3 328 107.5 319 L 114.5 315 Z " /><path fill="rgb(0,0,0)" stroke="rgb(0,0,0)" stroke-width="1" opacity="0.9411764705882353" d="M 212 315 Q 218.5 317.1 229 316 L 227 362 L 204.5 351 L 204 365 L 187 366 L 187 356.5 L 188 355.5 L 188.5 316 L 210.5 335 L 211 318.5 L 212 315 Z " /><path fill="rgb(0,0,0)" stroke="rgb(0,0,0)" stroke-width="1" opacity="0.9411764705882353" d="M 252.5 315 L 265.5 315 L 276.5 324 L 290.5 315 L 299 335 Q 301.7 336.1 301 333.5 L 310.5 316 L 325 324.5 L 300 368 L 297 366.5 L 279.5 334 Q 278.8 353.3 267.5 362 L 255.5 367 L 245.5 367 Q 238.1 364.9 234 359.5 L 230 351.5 L 230 337.5 Q 233.4 325.9 242.5 320 L 252.5 315 Z M 254 331 L 250 333 Q 245 336 244 342 L 245 351 L 249 353 L 256 352 L 262 344 Q 263 337 261 334 Q 259 330 254 331 Z " /><path fill="rgb(0,0,0)" stroke="rgb(0,0,0)" stroke-width="1" opacity="0.9411764705882353" d="M 157.5 316 L 160 316.5 L 160 323.5 L 159 324.5 Q 159.8 333.1 158 338 L 167 338 L 167 327.5 L 168 326.5 L 168 317 L 185 316 L 184 319.5 L 181 356.5 L 178.5 362 L 166 363 L 167 350 L 160 352.5 L 160 363.5 L 158.5 364 L 157.5 365 L 145 365 L 143 318 Q 147.9 316.3 156.5 317 L 157.5 316 Z " /><path fill="rgb(0,0,0)" stroke="rgb(0,0,0)" stroke-width="1" opacity="0" d="M 0 0 L 184 0.5 Q 181.9 2.9 176.5 2 L 166.5 8 L 164 8 Q 165.1 10.7 162.5 10 Q 161.4 12.7 158 12 L 157 16 Q 154.3 14.9 155 17.5 Q 149.3 21.1 148 28 Q 144.7 26.7 146 31.5 L 142 39.5 Q 143.3 46.3 141 49.5 L 141 51.5 L 141 61.5 L 140.5 62 L 97.5 62 Q 96.3 59.8 95 62.5 L 94 81.5 L 92 89.5 L 92 100.5 L 91 101.5 L 90 121.5 L 89 122.5 L 88 133.5 Q 89.3 136.3 90.5 134 L 104.5 128 L 108.5 128 L 110.5 126 L 117.5 124 L 122.5 124 L 128 122 L 133 112 L 138 110 Q 136.8 107 140.5 108 L 146.5 104 L 152.5 104 L 158.5 102 L 169 104 Q 167.7 107.3 172.5 106 L 179 110.5 L 178.5 112 Q 182.5 111.5 183 114.5 L 185 117.5 L 191 131.5 L 191 141.5 L 189 148.5 L 182 160 L 168.5 168 L 157.5 170 L 146.5 168 L 138.5 164 L 134.5 160 L 130.5 160 L 99.5 172 L 83.5 182 L 81 182 Q 82.1 184.7 79.5 184 L 68 192 L 68 194 L 66 194 L 66 196 L 64 196 L 64 198 Q 61.3 196.9 62 199.5 L 56 208 Q 52.7 206.7 54 211.5 Q 49.1 215.6 51 226.5 Q 53.1 234.4 59.5 238 Q 66.8 243.4 77 245 L 76 267.5 L 75 268.5 L 75 277.5 L 74 278.5 Q 75.5 286 73 289.5 L 74.5 291 L 314 291 L 313 272.5 L 312 271.5 L 312 259.5 L 310 249.5 L 309 229.5 L 308 228.5 L 308 218.5 L 307 217.5 L 307 209.5 L 305.5 208 L 289.5 218 L 267.5 226 L 255.5 228 L 254 229.5 L 246.5 240 L 242 242 Q 243.3 245 239.5 244 Q 232.5 250 217.5 248 L 204 242 Q 205.1 239.3 202.5 240 L 196 233.5 L 196.5 232 Q 194.3 232.8 195 230.5 Q 189 223.5 191 208.5 Q 193.9 194.9 203.5 188 Q 211 181 225.5 181 L 238.5 184 L 247.5 191 L 249.5 191 L 279.5 180 L 297.5 170 L 312 160 Q 310.9 157.3 313.5 158 L 320 150 Q 322.7 151.1 322 148.5 L 329 138.5 L 331 131.5 L 331 125.5 L 327 116 L 321.5 112 L 308.5 106 L 303.5 106 L 296 104 L 293 62 L 246.5 62 L 246 60.5 L 247 58.5 L 246 54.5 L 247 52.5 L 246 51.5 L 246 42.5 L 243 32.5 L 236 20 Q 233.3 21.1 234 18.5 L 229 13.5 L 229.5 12 L 227.5 12 L 215.5 4 L 204 0.5 L 406 0 L 406 369 L 0 369 L 0 0 Z M 152 116 L 150 118 Q 145 116 146 120 L 142 122 L 138 129 Q 139 133 137 135 L 138 144 L 142 149 Q 141 151 144 150 L 144 152 L 146 152 L 146 154 Q 150 153 152 156 Q 165 158 170 152 Q 172 153 171 150 L 173 150 L 176 146 L 178 139 L 178 134 L 176 127 L 173 124 Q 174 121 171 122 L 171 120 L 164 116 L 152 116 Z M 223 194 L 213 198 Q 206 202 204 211 L 205 223 L 209 229 L 217 234 L 222 235 Q 235 236 240 228 Q 239 225 242 226 L 244 221 L 244 210 L 242 205 Q 237 195 223 194 Z M 346 314 L 319 361 L 337 367 L 339 358 L 352 357 L 358 366 L 376 359 L 347 316 Q 348 313 346 314 Z M 60 315 L 59 316 L 49 316 L 48 317 L 37 317 L 30 318 L 30 332 L 38 332 L 38 343 L 37 344 L 37 366 L 48 364 Q 54 365 54 364 L 54 330 L 61 329 Q 63 325 62 317 L 63 316 L 60 315 Z M 115 315 L 108 319 Q 96 328 96 347 L 81 348 L 80 349 L 79 345 L 89 344 L 90 334 L 81 335 L 79 333 L 81 331 L 94 331 L 95 330 L 96 316 Q 90 318 80 317 L 79 318 L 66 318 L 63 319 L 63 357 L 64 358 L 64 365 L 70 364 L 87 364 L 88 363 L 96 363 L 97 349 L 100 358 Q 105 365 115 367 Q 134 368 142 358 L 131 344 L 123 350 L 118 350 L 113 343 L 116 336 L 121 332 Q 127 333 130 337 L 140 325 Q 136 318 128 315 L 115 315 Z M 212 315 L 211 319 L 211 335 L 189 316 L 188 356 L 187 357 L 187 366 L 204 365 L 205 351 L 227 362 L 229 316 Q 218 317 212 315 Z M 253 315 L 243 320 Q 233 326 230 338 L 230 352 L 234 360 Q 238 365 246 367 L 256 367 L 268 362 Q 279 353 280 334 L 297 367 L 300 368 L 325 325 L 311 316 L 301 334 Q 302 336 299 335 L 291 315 L 277 324 L 266 315 L 253 315 Z M 158 316 L 157 317 Q 148 316 143 318 L 145 365 L 158 365 L 159 364 L 160 364 L 160 353 L 167 350 L 166 363 L 179 362 L 181 357 L 184 320 L 185 316 L 168 317 L 168 327 L 167 328 L 167 338 L 158 338 Q 160 333 159 325 L 160 324 L 160 317 L 158 316 Z M 374 325 L 374 326 L 378 326 L 374 325 Z M 379 326 L 379 327 L 381 327 L 379 326 Z " /><path fill="rgb(0,0,0)" stroke="rgb(0,0,0)" stroke-width="1" opacity="0" d="M 191.5 17 L 203.5 18 L 205.5 20 L 213 22 L 213 24 L 216 24 L 216 26 L 218 26 Q 216.9 28.7 219.5 28 L 226 36.5 L 229 45.5 L 230 53.5 L 229 55.5 L 230 58.5 L 229 62 L 158.5 62 L 158 61.5 L 158 48.5 L 163 34 L 166 33.5 L 166 31.5 L 169 26 L 174 24 Q 172.8 21 176.5 22 L 178.5 20 L 182.5 20 L 184.5 18 Q 190 19.5 191.5 17 Z " /><path fill="rgb(0,0,0)" stroke="rgb(0,0,0)" stroke-width="1" opacity="0" d="M 253.5 331 Q 259.3 330.2 261 333.5 Q 263.3 336.7 262 343.5 L 255.5 352 L 248.5 353 L 245 350.5 L 244 341.5 Q 245.3 335.8 249.5 333 L 253.5 331 Z " /><path fill="rgb(0,0,0)" stroke="rgb(0,0,0)" stroke-width="1" opacity="0" d="M 346.5 340 L 350 346.5 L 343.5 349 L 343 346.5 L 346.5 340 Z " /><path fill="rgb(106,195,241)" stroke="rgb(106,195,241)" stroke-width="1" opacity="0.788235294117647" d="M 184.5 0 L 204 0.5 Q 202.8 3.3 201.5 1 L 186.5 1 L 185.5 2 L 184.5 0 Z " /><path fill="rgb(106,195,241)" stroke="rgb(106,195,241)" stroke-width="1" opacity="0.788235294117647" d="M 182.5 1 L 181.5 3 L 177.5 4 L 176 3.5 Q 176.9 6.5 172.5 5 L 172.5 4 L 182.5 1 Z " /><path fill="rgb(106,195,241)" stroke="rgb(106,195,241)" stroke-width="1" opacity="0.788235294117647" d="M 205.5 1 L 216 4.5 L 212.5 5 Q 211.5 2 206.5 3 L 205.5 1 Z " /><path fill="rgb(106,195,241)" stroke="rgb(106,195,241)" stroke-width="1" opacity="0.788235294117647" d="M 168.5 6 L 171 6.5 L 168.5 7 L 168.5 6 Z " /><path fill="rgb(106,195,241)" stroke="rgb(106,195,241)" stroke-width="1" opacity="0.788235294117647" d="M 217.5 6 L 230 12.5 L 229.5 15 Q 225.2 9.3 217.5 7 L 217.5 6 Z " /><path fill="rgb(106,195,241)" stroke="rgb(106,195,241)" stroke-width="1" opacity="0.788235294117647" d="M 164.5 8 L 167 8.5 L 164.5 9 L 164.5 8 Z " /><path fill="rgb(106,195,241)" stroke="rgb(106,195,241)" stroke-width="1" opacity="0.788235294117647" d="M 162.5 10 L 164 10.5 L 157.5 15 L 158 13.5 Q 157.2 10.9 160.5 12 L 162.5 10 Z " /><path fill="rgb(106,195,241)" stroke="rgb(106,195,241)" stroke-width="1" opacity="0.788235294117647" d="M 188.5 16 L 191 17.5 L 178.5 20 L 178.5 19 L 188.5 16 Z " /><path fill="rgb(106,195,241)" stroke="rgb(106,195,241)" stroke-width="1" opacity="0.788235294117647" d="M 198.5 16 L 203.5 17 L 205.5 19 L 207.5 19 L 213 21.5 L 210.5 22 L 203.5 18 L 197 17.5 L 198.5 16 Z " /><path fill="rgb(106,195,241)" stroke="rgb(106,195,241)" stroke-width="1" opacity="0.788235294117647" d="M 152.5 20 L 152 21.5 L 149.5 25 L 150 23.5 L 152.5 20 Z " /><path fill="rgb(106,195,241)" stroke="rgb(106,195,241)" stroke-width="1" opacity="0.788235294117647" d="M 236.5 22 L 241 28.5 L 239 27.5 L 236.5 22 Z " /><path fill="rgb(106,195,241)" stroke="rgb(106,195,241)" stroke-width="1" opacity="0.788235294117647" d="M 213.5 23 L 216 23.5 L 213.5 24 L 213.5 23 Z " /><path fill="rgb(106,195,241)" stroke="rgb(106,195,241)" stroke-width="1" opacity="0.788235294117647" d="M 164.5 25 L 163.5 27 L 164.5 25 Z " /><path fill="rgb(106,195,241)" stroke="rgb(106,195,241)" stroke-width="1" opacity="0.788235294117647" d="M 167 27 L 169 27.5 L 166 29.5 L 167 27 Z " /><path fill="rgb(106,195,241)" stroke="rgb(106,195,241)" stroke-width="1" opacity="0.788235294117647" d="M 146 28 L 148 28.5 L 144.5 36 L 144 34.5 Q 146.8 32.5 146 28 Z " /><path fill="rgb(106,195,241)" stroke="rgb(106,195,241)" stroke-width="1" opacity="0.788235294117647" d="M 241.5 30 L 243 32.5 L 241 31.5 L 241.5 30 Z " /><path fill="rgb(106,195,241)" stroke="rgb(106,195,241)" stroke-width="1" opacity="0.788235294117647" d="M 164 31 L 166 31.5 L 165.5 34 L 163 33.5 L 164 31 Z " /><path fill="rgb(106,195,241)" stroke="rgb(106,195,241)" stroke-width="1" opacity="0.788235294117647" d="M 222.5 31 L 226 35.5 L 223 33.5 L 222.5 31 Z " /><path fill="rgb(106,195,241)" stroke="rgb(106,195,241)" stroke-width="1" opacity="0.788235294117647" d="M 143.5 38 L 143 41.5 Q 144.1 47.6 141.5 50 L 141 48.5 L 142 47.5 L 142 39.5 L 143.5 38 Z " /><path fill="rgb(106,195,241)" stroke="rgb(106,195,241)" stroke-width="1" opacity="0.788235294117647" d="M 160.5 39 L 160 40.5 Q 161.5 44.9 158.5 44 L 159 42.5 L 160.5 39 Z " /><path fill="rgb(106,195,241)" stroke="rgb(106,195,241)" stroke-width="1" opacity="0.788235294117647" d="M 227.5 40 Q 229.8 40.8 229 44.5 L 228 44.5 L 227.5 40 Z " /><path fill="rgb(106,195,241)" stroke="rgb(106,195,241)" stroke-width="1" opacity="0.788235294117647" d="M 245.5 42 L 246 47.5 L 245 47.5 L 245.5 42 Z " /><path fill="rgb(106,195,241)" stroke="rgb(106,195,241)" stroke-width="1" opacity="0.788235294117647" d="M 158.5 47 L 158 48.5 L 158 61.5 L 158.5 62 L 227.5 62 L 227.5 63 L 158.5 63 L 157 61.5 L 157 48.5 L 158.5 47 Z " /><path fill="rgb(106,195,241)" stroke="rgb(106,195,241)" stroke-width="1" opacity="0.788235294117647" d="M 245.5 50 L 247 53.5 L 246 53.5 L 245.5 50 Z " /><path fill="rgb(106,195,241)" stroke="rgb(106,195,241)" stroke-width="1" opacity="0.788235294117647" d="M 141.5 51 L 142 61.5 L 140.5 63 L 98.5 63 L 98.5 62 L 140.5 62 L 141 61.5 L 141.5 51 Z " /><path fill="rgb(106,195,241)" stroke="rgb(106,195,241)" stroke-width="1" opacity="0.788235294117647" d="M 245 58 Q 248 57 247 60 Q 244 61 245 58 Z " /><path fill="rgb(106,195,241)" stroke="rgb(106,195,241)" stroke-width="1" opacity="0.788235294117647" d="M 230.5 59 L 230 60.5 L 229.5 62 L 229 60.5 L 230.5 59 Z " /><path fill="rgb(106,195,241)" stroke="rgb(106,195,241)" stroke-width="1" opacity="0.788235294117647" d="M 96.5 61 L 96 62.5 L 95.5 64 L 95 62.5 L 96.5 61 Z " /><path fill="rgb(106,195,241)" stroke="rgb(106,195,241)" stroke-width="1" opacity="0.788235294117647" d="M 248.5 62 L 257 62.5 L 248.5 63 L 248.5 62 Z " /><path fill="rgb(106,195,241)" stroke="rgb(106,195,241)" stroke-width="1" opacity="0.788235294117647" d="M 258.5 62 L 280 62.5 L 258.5 63 L 258.5 62 Z " /><path fill="rgb(106,195,241)" stroke="rgb(106,195,241)" stroke-width="1" opacity="0.788235294117647" d="M 94.5 69 L 95 81.5 L 93.5 84 L 93 82.5 L 94 81.5 L 94.5 69 Z " /><path fill="rgb(106,195,241)" stroke="rgb(106,195,241)" stroke-width="1" opacity="0.788235294117647" d="M 293.5 72 L 294 76.5 L 293 76.5 L 293.5 72 Z " /><path fill="rgb(106,195,241)" stroke="rgb(106,195,241)" stroke-width="1" opacity="0.788235294117647" d="M 294.5 83 L 295 85.5 L 294 85.5 L 294.5 83 Z " /><path fill="rgb(106,195,241)" stroke="rgb(106,195,241)" stroke-width="1" opacity="0.788235294117647" d="M 92.5 89 L 93 101.5 L 91.5 104 L 91 101.5 L 92 100.5 L 92.5 89 Z " /><path fill="rgb(106,195,241)" stroke="rgb(106,195,241)" stroke-width="1" opacity="0.788235294117647" d="M 151.5 102 L 152.5 104 L 148 103.5 L 151.5 102 Z " /><path fill="rgb(106,195,241)" stroke="rgb(106,195,241)" stroke-width="1" opacity="0.788235294117647" d="M 164.5 103 L 168 103.5 L 164.5 104 L 164.5 103 Z " /><path fill="rgb(106,195,241)" stroke="rgb(106,195,241)" stroke-width="1" opacity="0.788235294117647" d="M 169 104 L 176 107.5 L 174.5 108 Q 173.3 105 169 106 L 169 104 Z " /><path fill="rgb(106,195,241)" stroke="rgb(106,195,241)" stroke-width="1" opacity="0.788235294117647" d="M 141.5 105 L 145 105.5 L 141.5 106 L 141.5 105 Z " /><path fill="rgb(106,195,241)" stroke="rgb(106,195,241)" stroke-width="1" opacity="0.788235294117647" d="M 306.5 106 L 309 106.5 L 306.5 107 L 306.5 106 Z " /><path fill="rgb(106,195,241)" stroke="rgb(106,195,241)" stroke-width="1" opacity="0.788235294117647" d="M 138.5 107 L 141 107.5 L 138.5 108 L 138.5 107 Z " /><path fill="rgb(106,195,241)" stroke="rgb(106,195,241)" stroke-width="1" opacity="0.788235294117647" d="M 178.5 109 L 184 115.5 L 183 115.5 L 180.5 112 L 178 111.5 L 178.5 109 Z " /><path fill="rgb(106,195,241)" stroke="rgb(106,195,241)" stroke-width="1" opacity="0.788235294117647" d="M 90.5 110 L 91 121.5 L 89.5 125 L 89 122.5 L 90 121.5 L 90.5 110 Z " /><path fill="rgb(106,195,241)" stroke="rgb(106,195,241)" stroke-width="1" opacity="0.788235294117647" d="M 320.5 112 L 327 116 L 328 118.5 L 321.5 113 L 320.5 112 Z " /><path fill="rgb(106,195,241)" stroke="rgb(106,195,241)" stroke-width="1" opacity="0.788235294117647" d="M 297.5 113 Q 307.2 115.3 313 121.5 Q 316.6 124.4 315 132.5 Q 311 141.5 303.5 147 L 300.5 149 L 299 140.5 L 299 131.5 L 298 130.5 L 298 121.5 L 297 120.5 L 297.5 113 Z " /><path fill="rgb(106,195,241)" stroke="rgb(106,195,241)" stroke-width="1" opacity="0.788235294117647" d="M 151.5 116 L 164 116.5 L 151.5 117 L 151.5 116 Z " /><path fill="rgb(106,195,241)" stroke="rgb(106,195,241)" stroke-width="1" opacity="0.788235294117647" d="M 146 118 L 149 118.5 L 146.5 120 L 146 118 Z " /><path fill="rgb(106,195,241)" stroke="rgb(106,195,241)" stroke-width="1" opacity="0.788235294117647" d="M 165.5 118 L 168 118.5 L 165.5 119 L 165.5 118 Z " /><path fill="rgb(106,195,241)" stroke="rgb(106,195,241)" stroke-width="1" opacity="0.788235294117647" d="M 128.5 119 L 128 120.5 Q 128.8 122.8 126.5 122 L 124.5 123 L 124.5 122 L 128.5 119 Z " /><path fill="rgb(106,195,241)" stroke="rgb(106,195,241)" stroke-width="1" opacity="0.788235294117647" d="M 186.5 119 L 188 121.5 L 187 121.5 L 186.5 119 Z " /><path fill="rgb(106,195,241)" stroke="rgb(106,195,241)" stroke-width="1" opacity="0.788235294117647" d="M 117.5 123 L 123 123.5 L 116.5 125 L 117.5 123 Z " /><path fill="rgb(106,195,241)" stroke="rgb(106,195,241)" stroke-width="1" opacity="0.788235294117647" d="M 141.5 124 L 140.5 126 L 141.5 124 Z " /><path fill="rgb(106,195,241)" stroke="rgb(106,195,241)" stroke-width="1" opacity="0.788235294117647" d="M 173.5 124 L 176 127.5 L 175 127.5 L 173.5 124 Z " /><path fill="rgb(106,195,241)" stroke="rgb(106,195,241)" stroke-width="1" opacity="0.788235294117647" d="M 329.5 124 L 331 127.5 L 330 127.5 L 329.5 124 Z " /><path fill="rgb(106,195,241)" stroke="rgb(106,195,241)" stroke-width="1" opacity="0.788235294117647" d="M 111.5 125 L 114 125.5 L 111.5 126 L 111.5 125 Z " /><path fill="rgb(106,195,241)" stroke="rgb(106,195,241)" stroke-width="1" opacity="0.788235294117647" d="M 189.5 125 L 190 127.5 L 189 127.5 L 189.5 125 Z " /><path fill="rgb(106,195,241)" stroke="rgb(106,195,241)" stroke-width="1" opacity="0.788235294117647" d="M 107.5 126 L 110 126.5 L 103.5 129 L 104.5 127 L 107.5 126 Z " /><path fill="rgb(106,195,241)" stroke="rgb(106,195,241)" stroke-width="1" opacity="0.788235294117647" d="M 139.5 127 L 139 128.5 L 138.5 131 L 138 128.5 L 139.5 127 Z " /><path fill="rgb(106,195,241)" stroke="rgb(106,195,241)" stroke-width="1" opacity="0.788235294117647" d="M 99.5 129 L 102 129.5 L 95.5 132 L 95.5 131 L 99.5 129 Z " /><path fill="rgb(106,195,241)" stroke="rgb(106,195,241)" stroke-width="1" opacity="0.788235294117647" d="M 88.5 130 L 89 133.5 L 88 133.5 L 88.5 130 Z " /><path fill="rgb(106,195,241)" stroke="rgb(106,195,241)" stroke-width="1" opacity="0.788235294117647" d="M 93.5 132 L 92.5 134 L 91 133.5 L 93.5 132 Z " /><path fill="rgb(106,195,241)" stroke="rgb(106,195,241)" stroke-width="1" opacity="0.788235294117647" d="M 177.5 133 L 178 138.5 L 177 138.5 L 177.5 133 Z " /><path fill="rgb(106,195,241)" stroke="rgb(106,195,241)" stroke-width="1" opacity="0.788235294117647" d="M 137.5 134 L 138 137.5 L 137 137.5 L 137.5 134 Z " /><path fill="rgb(106,195,241)" stroke="rgb(106,195,241)" stroke-width="1" opacity="0.788235294117647" d="M 328.5 138 L 328 139.5 L 327.5 141 L 327 139.5 L 328.5 138 Z " /><path fill="rgb(106,195,241)" stroke="rgb(106,195,241)" stroke-width="1" opacity="0.788235294117647" d="M 138.5 141 L 140 144.5 L 138 143.5 L 138.5 141 Z " /><path fill="rgb(106,195,241)" stroke="rgb(106,195,241)" stroke-width="1" opacity="0.788235294117647" d="M 175.5 144 L 176 145.5 L 173 147.5 L 175.5 144 Z " /><path fill="rgb(106,195,241)" stroke="rgb(106,195,241)" stroke-width="1" opacity="0.788235294117647" d="M 140.5 146 L 141.5 148 L 140.5 146 Z " /><path fill="rgb(106,195,241)" stroke="rgb(106,195,241)" stroke-width="1" opacity="0.788235294117647" d="M 319.5 151 L 317.5 154 L 319.5 151 Z " /><path fill="rgb(106,195,241)" stroke="rgb(106,195,241)" stroke-width="1" opacity="0.788235294117647" d="M 166.5 153 L 168 153.5 L 165.5 155 L 166.5 153 Z " /><path fill="rgb(106,195,241)" stroke="rgb(106,195,241)" stroke-width="1" opacity="0.788235294117647" d="M 151.5 155 L 156 155.5 L 151.5 156 L 151.5 155 Z " /><path fill="rgb(106,195,241)" stroke="rgb(106,195,241)" stroke-width="1" opacity="0.788235294117647" d="M 160.5 155 L 163 155.5 L 160.5 156 L 160.5 155 Z " /><path fill="rgb(106,195,241)" stroke="rgb(106,195,241)" stroke-width="1" opacity="0.788235294117647" d="M 134.5 160 L 135.5 162 L 134.5 160 Z " /><path fill="rgb(106,195,241)" stroke="rgb(106,195,241)" stroke-width="1" opacity="0.788235294117647" d="M 180.5 160 L 179.5 162 L 180.5 160 Z " /><path fill="rgb(106,195,241)" stroke="rgb(106,195,241)" stroke-width="1" opacity="0.788235294117647" d="M 154.5 169 L 157 169.5 L 154.5 170 L 154.5 169 Z " /><path fill="rgb(106,195,241)" stroke="rgb(106,195,241)" stroke-width="1" opacity="0.788235294117647" d="M 226.5 181 L 230 181.5 L 226.5 182 L 226.5 181 Z " /><path fill="rgb(106,195,241)" stroke="rgb(106,195,241)" stroke-width="1" opacity="0.788235294117647" d="M 76.5 186 L 74.5 189 L 76.5 186 Z " /><path fill="rgb(106,195,241)" stroke="rgb(106,195,241)" stroke-width="1" opacity="0.788235294117647" d="M 71.5 190 L 69.5 193 L 68 192.5 L 71.5 190 Z " /><path fill="rgb(106,195,241)" stroke="rgb(106,195,241)" stroke-width="1" opacity="0.788235294117647" d="M 222.5 194 L 227 194.5 L 222.5 195 L 222.5 194 Z " /><path fill="rgb(106,195,241)" stroke="rgb(106,195,241)" stroke-width="1" opacity="0.788235294117647" d="M 234.5 197 L 235.5 199 L 234.5 197 Z " /><path fill="rgb(106,195,241)" stroke="rgb(106,195,241)" stroke-width="1" opacity="0.788235294117647" d="M 81.5 202 L 82 212.5 L 81 213.5 L 80 232.5 L 78.5 237 L 69 230.5 Q 65.4 227.6 67 219.5 L 73 209 L 75 209 Q 73.9 206.3 76.5 207 L 81.5 202 Z " /><path fill="rgb(106,195,241)" stroke="rgb(106,195,241)" stroke-width="1" opacity="0.788235294117647" d="M 208.5 202 L 207.5 204 L 208.5 202 Z " /><path fill="rgb(106,195,241)" stroke="rgb(106,195,241)" stroke-width="1" opacity="0.788235294117647" d="M 54 208 L 56 208.5 L 54 209.5 L 54 208 Z " /><path fill="rgb(106,195,241)" stroke="rgb(106,195,241)" stroke-width="1" opacity="0.788235294117647" d="M 305.5 208 L 306.5 210 L 305.5 208 Z " /><path fill="rgb(106,195,241)" stroke="rgb(106,195,241)" stroke-width="1" opacity="0.788235294117647" d="M 204.5 210 L 205 212.5 L 204 212.5 L 204.5 210 Z " /><path fill="rgb(106,195,241)" stroke="rgb(106,195,241)" stroke-width="1" opacity="0.788235294117647" d="M 307.5 218 L 308 220.5 L 307 220.5 L 307.5 218 Z " /><path fill="rgb(106,195,241)" stroke="rgb(106,195,241)" stroke-width="1" opacity="0.788235294117647" d="M 209.5 228 L 210.5 230 L 209.5 228 Z " /><path fill="rgb(106,195,241)" stroke="rgb(106,195,241)" stroke-width="1" opacity="0.788235294117647" d="M 53.5 231 L 57 233 L 60 237.5 L 53.5 231 Z " /><path fill="rgb(106,195,241)" stroke="rgb(106,195,241)" stroke-width="1" opacity="0.788235294117647" d="M 251.5 234 L 250.5 236 L 251.5 234 Z " /><path fill="rgb(106,195,241)" stroke="rgb(106,195,241)" stroke-width="1" opacity="0.788235294117647" d="M 198.5 236 L 204 240.5 L 202.5 241 L 198.5 236 Z " /><path fill="rgb(106,195,241)" stroke="rgb(106,195,241)" stroke-width="1" opacity="0.788235294117647" d="M 61.5 238 L 64 239.5 L 62.5 240 L 61.5 238 Z " /><path fill="rgb(106,195,241)" stroke="rgb(106,195,241)" stroke-width="1" opacity="0.788235294117647" d="M 245.5 240 L 244.5 242 L 245.5 240 Z " /><path fill="rgb(106,195,241)" stroke="rgb(106,195,241)" stroke-width="1" opacity="0.788235294117647" d="M 309.5 240 L 310 242.5 L 309 242.5 L 309.5 240 Z " /><path fill="rgb(106,195,241)" stroke="rgb(106,195,241)" stroke-width="1" opacity="0.788235294117647" d="M 77.5 245 L 78 249.5 L 77 249.5 L 77.5 245 Z " /><path fill="rgb(106,195,241)" stroke="rgb(106,195,241)" stroke-width="1" opacity="0.788235294117647" d="M 222.5 248 L 226 248.5 L 222.5 249 L 222.5 248 Z " /><path fill="rgb(106,195,241)" stroke="rgb(106,195,241)" stroke-width="1" opacity="0.788235294117647" d="M 76.5 256 L 77 260.5 L 76 260.5 L 76.5 256 Z " /><path fill="rgb(106,195,241)" stroke="rgb(106,195,241)" stroke-width="1" opacity="0.788235294117647" d="M 311.5 259 L 312 262.5 L 311 262.5 L 311.5 259 Z " /><path fill="rgb(106,195,241)" stroke="rgb(106,195,241)" stroke-width="1" opacity="0.788235294117647" d="M 74.5 278 L 75 282.5 L 74 282.5 L 74.5 278 Z " /><path fill="rgb(106,195,241)" stroke="rgb(106,195,241)" stroke-width="1" opacity="0.788235294117647" d="M 378.5 326 L 381 326.5 L 378.5 327 L 378.5 326 Z " /><path fill="rgb(15,132,205)" stroke="rgb(15,132,205)" stroke-width="1" opacity="0.996078431372549" d="M 186.5 1 L 201.5 1 L 209.5 3 Q 221.1 6.9 229 14.5 L 233 19.5 L 242 32.5 L 245 43.5 Q 243.7 50.3 246 53.5 L 245 55.5 L 246 57.5 L 245 59.5 L 246 64 L 255.5 63 L 256.5 64 L 285 64.5 L 284 69.5 L 285 72.5 L 285 92.5 L 284 93.5 L 283 110.5 L 286 112.5 L 282 114.5 L 282 116.5 L 281 120 L 276 119 L 272 124.5 L 273 126.5 Q 270.3 127.6 271 131 L 265 134.5 Q 267.8 136.3 263.5 138 L 258.5 141 L 256 140 L 258 143.5 L 256 143.5 L 254.5 146 L 252.5 143 L 251 145.5 L 252 149 Q 245.6 150 244 144.5 L 243.5 143 L 238 144 L 235.5 148 Q 232.9 147.2 234 150.5 L 234 152.5 L 226.5 160 Q 220.7 158.3 222 162 Q 228 160 226 166 L 222 166 Q 223 169 220 168 L 218.5 164 L 218 169 L 220 169.5 L 218.5 170 L 216.5 170 L 212 170.5 L 215 171.5 L 211.5 172 L 209.5 171 L 206 172.5 L 210 173.5 L 200 180 L 195 186.5 L 195.5 188 L 194 187.5 L 195 189.5 L 194 192 L 191 192.5 L 191.5 194 Q 189.3 193.3 190 195.5 L 191 199.5 L 189 206.5 L 190 209.5 L 188.5 217 Q 189 211.5 185.5 210 L 184.5 212 L 187 213.5 L 181 215.5 L 182 219.5 L 180 220.5 Q 180.8 218.3 178.5 219 L 177 218.5 L 176 220.5 L 177 224 L 170 220 L 170 216 L 171.5 216 L 174 215 L 177.5 210 Q 180.5 210.7 179 207 L 182 207 L 182 204.5 L 187 200.5 L 186.5 199 L 188 199.5 L 186 196.5 L 188 196.5 L 186.5 194 Q 182.8 192.8 184 196.5 L 182 200 L 184 200.5 L 180.5 203 L 181 201.5 Q 181.7 198.9 179 200 L 178 203.5 L 179 205.5 L 178 205.5 L 177.5 204 L 170 204 L 169 207.5 Q 170.3 210.2 171.5 208 L 173 208.5 L 171 209 L 170.5 211 L 169.5 209 L 165.5 214 Q 169.3 213 168 216 L 163.5 215 L 155.5 224 L 158 224.5 L 146 226.5 L 152 227.5 L 145.5 229 L 130.5 229 L 129.5 228 L 119.5 228 L 105.5 224 L 101.5 224 L 88.5 220 L 81 216 Q 80.3 212.6 83 211.5 L 82 210.5 L 82 201 L 106.5 188 L 131.5 179 L 141.5 184 L 159.5 185 L 171.5 182 L 183 174 L 191 158.5 L 192 153.5 L 192 130.5 L 190 126.5 L 189 120 Q 186.3 121.1 187 118.5 L 181.5 111 Q 179.3 111.8 180 109.5 L 164.5 102 L 151.5 102 Q 138.6 104.1 132 112.5 L 130 115.5 L 125.5 122 L 109.5 125 L 89 133 L 91 121.5 L 91 111.5 L 93 101.5 L 93 90.5 L 95 81.5 L 96 63 L 141.5 63 L 142 62.5 L 142 48.5 L 147 29.5 L 160.5 13 Q 170.7 4.2 186.5 1 Z M 189 16 Q 178 18 171 24 L 164 32 Q 165 34 162 33 L 157 49 L 157 62 L 159 63 L 230 63 L 231 60 L 230 59 L 230 45 L 222 28 L 207 18 L 199 16 L 189 16 Z M 275 106 L 276 109 L 275 111 L 277 110 L 279 107 L 278 107 L 275 106 Z M 267 113 L 267 115 L 269 116 Q 270 112 267 113 Z M 261 122 Q 260 125 263 124 Q 264 121 261 122 Z M 258 124 L 258 126 L 261 126 L 258 124 Z M 252 133 L 249 137 L 251 137 L 253 134 L 252 133 Z M 248 137 L 246 140 L 248 140 Q 251 139 248 137 Z M 204 169 L 204 171 L 206 170 L 204 169 Z M 197 177 L 195 179 L 197 179 L 197 177 Z M 200 177 L 201 179 L 203 178 L 200 177 Z M 195 179 L 194 182 L 195 182 L 195 179 Z M 197 179 L 197 181 L 200 180 L 197 179 Z M 195 182 L 195 185 L 197 184 Q 198 181 195 182 Z M 186 191 L 186 193 L 189 193 L 190 192 L 186 191 Z M 178 196 Q 177 199 180 198 Q 181 195 178 196 Z " /><path fill="rgb(15,132,205)" stroke="rgb(15,132,205)" stroke-width="1" opacity="0.996078431372549" d="M 286 64 Q 289 63 288 66 Q 285 67 286 64 Z " /><path fill="rgb(15,132,205)" stroke="rgb(15,132,205)" stroke-width="1" opacity="0.996078431372549" d="M 310 110 L 316 110.5 L 315.5 112 Q 319.9 110.5 319 113.5 L 322 114.5 Q 321.2 117.1 324.5 116 Q 330.8 120.8 330 132.5 L 326.5 140 Q 324.5 128 316.5 122 L 310.5 118 Q 309.3 120.3 308 117.5 L 311 116.5 L 307 113.5 L 308.5 114 L 310 113.5 L 310 111.5 L 310 110 Z " /><path fill="rgb(15,132,205)" stroke="rgb(15,132,205)" stroke-width="1" opacity="0.996078431372549" d="M 152.5 117 L 162.5 117 L 171 122.5 L 173 125.5 L 175 127.5 L 177 137.5 L 175 144.5 L 168.5 152 L 165.5 154 L 157.5 155 L 154.5 154 L 152.5 154 L 148.5 152 L 147.5 153 L 142 147.5 L 139 142.5 L 138 134.5 L 139 129.5 L 144.5 122 Q 146.8 122.8 146 120.5 L 150.5 118 L 152.5 117 Z " /><path fill="rgb(15,132,205)" stroke="rgb(15,132,205)" stroke-width="1" opacity="0.996078431372549" d="M 297.5 121 L 298 124.5 L 297 124.5 L 297.5 121 Z " /><path fill="rgb(15,132,205)" stroke="rgb(15,132,205)" stroke-width="1" opacity="0.996078431372549" d="M 299.5 141 L 300 143.5 L 299 143.5 L 299.5 141 Z " /><path fill="rgb(15,132,205)" stroke="rgb(15,132,205)" stroke-width="1" opacity="0.996078431372549" d="M 242.5 147 L 244 149.5 L 243 149.5 L 242.5 147 Z " /><path fill="rgb(15,132,205)" stroke="rgb(15,132,205)" stroke-width="1" opacity="0.996078431372549" d="M 232 156 Q 235 154.8 234 158.5 L 232 159.5 L 232 156 Z " /><path fill="rgb(15,132,205)" stroke="rgb(15,132,205)" stroke-width="1" opacity="0.996078431372549" d="M 230 164 Q 235.2 162.3 234 166 Q 228.8 167.7 230 164 Z " /><path fill="rgb(15,132,205)" stroke="rgb(15,132,205)" stroke-width="1" opacity="0.996078431372549" d="M 231.5 168 L 234 168.5 L 231.5 169 L 231.5 168 Z " /><path fill="rgb(15,132,205)" stroke="rgb(15,132,205)" stroke-width="1" opacity="0.996078431372549" d="M 70.5 192 L 71.5 194 L 70.5 192 Z " /><path fill="rgb(15,132,205)" stroke="rgb(15,132,205)" stroke-width="1" opacity="0.996078431372549" d="M 67.5 196 L 68.5 200 Q 64 198 67.5 196 Z " /><path fill="rgb(15,132,205)" stroke="rgb(15,132,205)" stroke-width="1" opacity="0.996078431372549" d="M 216.5 198 L 217.5 200 L 216.5 198 Z " /><path fill="rgb(15,132,205)" stroke="rgb(15,132,205)" stroke-width="1" opacity="0.996078431372549" d="M 219.5 204 L 222 204.5 L 218.5 206 L 219.5 204 Z " /><path fill="rgb(15,132,205)" stroke="rgb(15,132,205)" stroke-width="1" opacity="0.996078431372549" d="M 77.5 205 L 76.5 207 L 77.5 205 Z " /><path fill="rgb(15,132,205)" stroke="rgb(15,132,205)" stroke-width="1" opacity="0.996078431372549" d="M 209.5 205 L 210 206.5 L 209.5 209 L 207 208.5 L 209.5 205 Z " /><path fill="rgb(15,132,205)" stroke="rgb(15,132,205)" stroke-width="1" opacity="0.996078431372549" d="M 56.5 208 Q 58.8 207.3 58 209.5 L 58 211.5 L 58 215.5 L 61 222 L 63.5 221 L 64 222.5 Q 61.5 224 65 225.5 L 66.5 228 L 68 228.5 L 68 230.5 L 68 232 Q 71.7 230.5 71 233.5 L 74 234.5 L 73.5 236 L 76.5 237 L 78 236.5 L 77.5 238 L 79 238.5 L 76 240 Q 77.1 243.5 69.5 242 L 64 240 Q 65.3 237 61.5 238 L 53 228.5 L 52 217.5 L 56.5 208 Z " /><path fill="rgb(15,132,205)" stroke="rgb(15,132,205)" stroke-width="1" opacity="0.996078431372549" d="M 72.5 210 L 71.5 212 L 72.5 210 Z " /><path fill="rgb(15,132,205)" stroke="rgb(15,132,205)" stroke-width="1" opacity="0.996078431372549" d="M 173.5 210 L 175 210.5 L 170 214.5 L 173.5 210 Z " /><path fill="rgb(15,132,205)" stroke="rgb(15,132,205)" stroke-width="1" opacity="0.996078431372549" d="M 80.5 222 L 81 226.5 L 80 226.5 L 80.5 222 Z " /><path fill="rgb(15,132,205)" stroke="rgb(15,132,205)" stroke-width="1" opacity="0.996078431372549" d="M 82.5 222 L 84 225 Q 80.5 226.1 82.5 222 Z " /><path fill="rgb(15,132,205)" stroke="rgb(15,132,205)" stroke-width="1" opacity="0.996078431372549" d="M 167.5 224 L 170 224.5 L 167.5 225 L 167.5 224 Z " /><path fill="rgb(15,132,205)" stroke="rgb(15,132,205)" stroke-width="1" opacity="0.996078431372549" d="M 154.5 227 L 157 227.5 L 154.5 228 L 154.5 227 Z " /><path fill="rgb(15,132,205)" stroke="rgb(15,132,205)" stroke-width="1" opacity="0.996078431372549" d="M 81.5 232 L 82 234.5 L 81 234.5 L 81.5 232 Z " /><path fill="rgb(15,132,205)" stroke="rgb(15,132,205)" stroke-width="1" opacity="0.996078431372549" d="M 80.5 239 L 80 240.5 L 79 242.5 L 79 244.5 L 78.5 246 L 78 241.5 L 80.5 239 Z " /><path fill="rgb(15,132,205)" stroke="rgb(15,132,205)" stroke-width="1" opacity="0.996078431372549" d="M 247.5 246 L 246.5 248 L 247.5 246 Z " /><path fill="rgb(15,132,205)" stroke="rgb(15,132,205)" stroke-width="1" opacity="0.996078431372549" d="M 128.5 261 Q 130.8 260.3 130 262.5 L 128.5 261 Z " /><path fill="rgb(15,132,205)" stroke="rgb(15,132,205)" stroke-width="1" opacity="0.996078431372549" d="M 125 263 Q 127.7 261.9 127 264.5 L 128 266.5 L 127 266.5 Q 127.7 263.9 125 265 L 125 263 Z " /><path fill="rgb(15,132,205)" stroke="rgb(15,132,205)" stroke-width="1" opacity="0.996078431372549" d="M 123.5 266 Q 128 268 124.5 270 L 124.5 268 L 121 267.5 L 123.5 266 Z " /><path fill="rgb(15,132,205)" stroke="rgb(15,132,205)" stroke-width="1" opacity="0.996078431372549" d="M 119.5 269 L 120 270.5 L 119 273 L 122.5 271 L 121 273.5 L 122 274.5 L 121.5 276 L 117.5 271 Q 120 271.7 119.5 269 Z " /><path fill="rgb(15,132,205)" stroke="rgb(15,132,205)" stroke-width="1" opacity="0.996078431372549" d="M 114.5 274 L 115 275.5 L 114 276.5 L 115.5 279 Q 111.3 277.3 114 275.5 L 114.5 274 Z " /><path fill="rgb(15,132,205)" stroke="rgb(15,132,205)" stroke-width="1" opacity="0.996078431372549" d="M 110.5 279 L 110 280.5 L 113.5 285 L 111 284 L 109 280.5 L 110.5 279 Z " /><path fill="rgb(15,132,205)" stroke="rgb(15,132,205)" stroke-width="1" opacity="0.996078431372549" d="M 106.5 283 Q 108.8 282.3 108 284.5 L 106.5 283 Z " /><path fill="rgb(15,132,205)" stroke="rgb(15,132,205)" stroke-width="1" opacity="0.996078431372549" d="M 106.5 287 L 109 288.5 L 105.5 289 L 106.5 287 Z " /><path fill="rgb(113,158,187)" stroke="rgb(113,158,187)" stroke-width="1" opacity="0.47843137254901963" d="M 162.5 11 L 161.5 13 L 162.5 11 Z " /><path fill="rgb(113,158,187)" stroke="rgb(113,158,187)" stroke-width="1" opacity="0.47843137254901963" d="M 225.5 11 L 226.5 13 L 225.5 11 Z " /><path fill="rgb(113,158,187)" stroke="rgb(113,158,187)" stroke-width="1" opacity="0.47843137254901963" d="M 190.5 16 L 198 16.5 L 190.5 17 L 190.5 16 Z " /><path fill="rgb(113,158,187)" stroke="rgb(113,158,187)" stroke-width="1" opacity="0.47843137254901963" d="M 153 19 L 155 19.5 L 152 21.5 L 153 19 Z " /><path fill="rgb(113,158,187)" stroke="rgb(113,158,187)" stroke-width="1" opacity="0.47843137254901963" d="M 233.5 19 L 235.5 22 L 233.5 19 Z " /><path fill="rgb(113,158,187)" stroke="rgb(113,158,187)" stroke-width="1" opacity="0.47843137254901963" d="M 150.5 24 L 149.5 26 L 150.5 24 Z " /><path fill="rgb(113,158,187)" stroke="rgb(113,158,187)" stroke-width="1" opacity="0.47843137254901963" d="M 220.5 28 Q 222.8 27.3 222 29.5 L 223.5 32 L 220.5 28 Z " /><path fill="rgb(113,158,187)" stroke="rgb(113,158,187)" stroke-width="1" opacity="0.47843137254901963" d="M 224.5 33 L 225.5 35 L 224.5 33 Z " /><path fill="rgb(113,158,187)" stroke="rgb(113,158,187)" stroke-width="1" opacity="0.47843137254901963" d="M 242.5 33 L 243 35.5 L 242 35.5 L 242.5 33 Z " /><path fill="rgb(113,158,187)" stroke="rgb(113,158,187)" stroke-width="1" opacity="0.47843137254901963" d="M 144.5 36 L 145 38.5 L 143 39.5 L 144.5 36 Z " /><path fill="rgb(113,158,187)" stroke="rgb(113,158,187)" stroke-width="1" opacity="0.47843137254901963" d="M 244.5 40 L 245 42.5 L 244 42.5 L 244.5 40 Z " /><path fill="rgb(113,158,187)" stroke="rgb(113,158,187)" stroke-width="1" opacity="0.47843137254901963" d="M 229.5 44 L 230 48.5 L 229 48.5 L 229.5 44 Z " /><path fill="rgb(113,158,187)" stroke="rgb(113,158,187)" stroke-width="1" opacity="0.47843137254901963" d="M 280.5 62 L 292 62.5 L 280.5 63 L 280.5 62 Z " /><path fill="rgb(113,158,187)" stroke="rgb(113,158,187)" stroke-width="1" opacity="0.47843137254901963" d="M 95.5 64 L 96 69.5 L 95 69.5 L 95.5 64 Z " /><path fill="rgb(113,158,187)" stroke="rgb(113,158,187)" stroke-width="1" opacity="0.47843137254901963" d="M 292.5 64 L 293 71.5 L 292 71.5 L 292.5 64 Z " /><path fill="rgb(113,158,187)" stroke="rgb(113,158,187)" stroke-width="1" opacity="0.47843137254901963" d="M 293.5 77 L 294 81.5 L 293 81.5 L 293.5 77 Z " /><path fill="rgb(113,158,187)" stroke="rgb(113,158,187)" stroke-width="1" opacity="0.47843137254901963" d="M 93.5 84 L 94 89.5 L 93 89.5 L 93.5 84 Z " /><path fill="rgb(113,158,187)" stroke="rgb(113,158,187)" stroke-width="1" opacity="0.47843137254901963" d="M 294.5 86 L 295 92.5 L 294 92.5 L 294.5 86 Z " /><path fill="rgb(113,158,187)" stroke="rgb(113,158,187)" stroke-width="1" opacity="0.47843137254901963" d="M 295.5 98 L 297 104.5 L 295 103.5 L 295.5 98 Z " /><path fill="rgb(113,158,187)" stroke="rgb(113,158,187)" stroke-width="1" opacity="0.47843137254901963" d="M 152.5 102 L 155 102.5 L 152.5 103 L 152.5 102 Z " /><path fill="rgb(113,158,187)" stroke="rgb(113,158,187)" stroke-width="1" opacity="0.47843137254901963" d="M 160.5 102 L 165 102.5 L 160.5 103 L 160.5 102 Z " /><path fill="rgb(113,158,187)" stroke="rgb(113,158,187)" stroke-width="1" opacity="0.47843137254901963" d="M 146.5 103 L 148 103.5 L 144.5 105 L 144.5 104 L 146.5 103 Z " /><path fill="rgb(113,158,187)" stroke="rgb(113,158,187)" stroke-width="1" opacity="0.47843137254901963" d="M 91.5 104 L 92 110.5 L 91 110.5 L 91.5 104 Z " /><path fill="rgb(113,158,187)" stroke="rgb(113,158,187)" stroke-width="1" opacity="0.47843137254901963" d="M 299.5 105 L 303 105.5 L 299.5 106 L 299.5 105 Z " /><path fill="rgb(113,158,187)" stroke="rgb(113,158,187)" stroke-width="1" opacity="0.47843137254901963" d="M 176.5 107 L 180 109.5 L 178.5 109 L 176.5 107 Z " /><path fill="rgb(113,158,187)" stroke="rgb(113,158,187)" stroke-width="1" opacity="0.47843137254901963" d="M 134.5 110 L 136 110.5 L 132.5 113 L 134.5 110 Z " /><path fill="rgb(113,158,187)" stroke="rgb(113,158,187)" stroke-width="1" opacity="0.47843137254901963" d="M 316.5 110 L 320 112.5 L 318.5 112 L 316.5 110 Z " /><path fill="rgb(113,158,187)" stroke="rgb(113,158,187)" stroke-width="1" opacity="0.47843137254901963" d="M 181.5 111 L 182.5 113 L 181.5 111 Z " /><path fill="rgb(113,158,187)" stroke="rgb(113,158,187)" stroke-width="1" opacity="0.47843137254901963" d="M 321.5 113 L 323.5 116 L 321.5 113 Z " /><path fill="rgb(113,158,187)" stroke="rgb(113,158,187)" stroke-width="1" opacity="0.47843137254901963" d="M 130 114 L 132 114.5 L 129 116.5 L 130 114 Z " /><path fill="rgb(113,158,187)" stroke="rgb(113,158,187)" stroke-width="1" opacity="0.47843137254901963" d="M 184.5 115 L 185.5 117 L 184.5 115 Z " /><path fill="rgb(113,158,187)" stroke="rgb(113,158,187)" stroke-width="1" opacity="0.47843137254901963" d="M 150.5 117 L 152 117.5 L 149.5 119 L 150.5 117 Z " /><path fill="rgb(113,158,187)" stroke="rgb(113,158,187)" stroke-width="1" opacity="0.47843137254901963" d="M 128.5 118 L 127.5 120 L 128.5 118 Z " /><path fill="rgb(113,158,187)" stroke="rgb(113,158,187)" stroke-width="1" opacity="0.47843137254901963" d="M 326.5 118 L 327.5 120 L 326.5 118 Z " /><path fill="rgb(113,158,187)" stroke="rgb(113,158,187)" stroke-width="1" opacity="0.47843137254901963" d="M 167.5 119 L 173 123.5 L 168.5 120 L 167.5 119 Z " /><path fill="rgb(113,158,187)" stroke="rgb(113,158,187)" stroke-width="1" opacity="0.47843137254901963" d="M 145.5 120 L 146 122 L 142.5 124 L 145.5 120 Z " /><path fill="rgb(113,158,187)" stroke="rgb(113,158,187)" stroke-width="1" opacity="0.47843137254901963" d="M 188.5 121 L 190 124.5 L 189 124.5 L 188.5 121 Z " /><path fill="rgb(113,158,187)" stroke="rgb(113,158,187)" stroke-width="1" opacity="0.47843137254901963" d="M 113.5 124 L 116 124.5 L 113.5 125 L 113.5 124 Z " /><path fill="rgb(113,158,187)" stroke="rgb(113,158,187)" stroke-width="1" opacity="0.47843137254901963" d="M 89.5 125 L 90 130.5 L 89 130.5 L 89.5 125 Z " /><path fill="rgb(113,158,187)" stroke="rgb(113,158,187)" stroke-width="1" opacity="0.47843137254901963" d="M 109.5 125 L 111 125.5 L 108.5 127 L 109.5 125 Z " /><path fill="rgb(113,158,187)" stroke="rgb(113,158,187)" stroke-width="1" opacity="0.47843137254901963" d="M 141.5 125 L 141 126.5 L 139.5 129 L 140 127.5 L 141.5 125 Z " /><path fill="rgb(113,158,187)" stroke="rgb(113,158,187)" stroke-width="1" opacity="0.47843137254901963" d="M 173.5 125 L 174.5 127 L 173.5 125 Z " /><path fill="rgb(113,158,187)" stroke="rgb(113,158,187)" stroke-width="1" opacity="0.47843137254901963" d="M 330.5 128 L 331 130.5 L 330 130.5 L 330.5 128 Z " /><path fill="rgb(113,158,187)" stroke="rgb(113,158,187)" stroke-width="1" opacity="0.47843137254901963" d="M 191.5 130 L 192 139.5 L 191 139.5 L 191.5 130 Z " /><path fill="rgb(113,158,187)" stroke="rgb(113,158,187)" stroke-width="1" opacity="0.47843137254901963" d="M 176.5 131 L 177 133.5 L 176 133.5 L 176.5 131 Z " /><path fill="rgb(113,158,187)" stroke="rgb(113,158,187)" stroke-width="1" opacity="0.47843137254901963" d="M 89 133 L 91 133.5 L 89 134.5 L 89 133 Z " /><path fill="rgb(113,158,187)" stroke="rgb(113,158,187)" stroke-width="1" opacity="0.47843137254901963" d="M 328.5 136 L 329 137.5 L 327 138.5 L 328.5 136 Z " /><path fill="rgb(113,158,187)" stroke="rgb(113,158,187)" stroke-width="1" opacity="0.47843137254901963" d="M 176.5 138 L 177 141.5 L 175.5 144 L 175 142.5 L 176.5 138 Z " /><path fill="rgb(113,158,187)" stroke="rgb(113,158,187)" stroke-width="1" opacity="0.47843137254901963" d="M 190.5 142 L 191 144.5 L 190 144.5 L 190.5 142 Z " /><path fill="rgb(113,158,187)" stroke="rgb(113,158,187)" stroke-width="1" opacity="0.47843137254901963" d="M 139.5 143 L 142 146.5 L 140 145.5 L 139.5 143 Z " /><path fill="rgb(113,158,187)" stroke="rgb(113,158,187)" stroke-width="1" opacity="0.47843137254901963" d="M 323.5 146 L 320.5 150 L 323.5 146 Z " /><path fill="rgb(113,158,187)" stroke="rgb(113,158,187)" stroke-width="1" opacity="0.47843137254901963" d="M 142.5 148 L 146.5 153 L 142.5 148 Z " /><path fill="rgb(113,158,187)" stroke="rgb(113,158,187)" stroke-width="1" opacity="0.47843137254901963" d="M 188.5 149 L 189 150.5 L 187 151.5 L 188.5 149 Z " /><path fill="rgb(113,158,187)" stroke="rgb(113,158,187)" stroke-width="1" opacity="0.47843137254901963" d="M 170.5 150 L 168.5 153 L 167 152.5 L 170.5 150 Z " /><path fill="rgb(113,158,187)" stroke="rgb(113,158,187)" stroke-width="1" opacity="0.47843137254901963" d="M 148.5 153 L 152 154.5 L 150.5 155 L 148.5 153 Z " /><path fill="rgb(113,158,187)" stroke="rgb(113,158,187)" stroke-width="1" opacity="0.47843137254901963" d="M 162.5 154 L 165 154.5 L 162.5 155 L 162.5 154 Z " /><path fill="rgb(113,158,187)" stroke="rgb(113,158,187)" stroke-width="1" opacity="0.47843137254901963" d="M 156.5 155 L 160 155.5 L 156.5 156 L 156.5 155 Z " /><path fill="rgb(113,158,187)" stroke="rgb(113,158,187)" stroke-width="1" opacity="0.47843137254901963" d="M 185.5 155 L 183.5 158 L 185.5 155 Z " /><path fill="rgb(113,158,187)" stroke="rgb(113,158,187)" stroke-width="1" opacity="0.47843137254901963" d="M 311.5 158 L 309.5 161 L 311.5 158 Z " /><path fill="rgb(113,158,187)" stroke="rgb(113,158,187)" stroke-width="1" opacity="0.47843137254901963" d="M 128.5 161 L 130 161.5 L 125.5 163 L 125.5 162 L 128.5 161 Z " /><path fill="rgb(113,158,187)" stroke="rgb(113,158,187)" stroke-width="1" opacity="0.47843137254901963" d="M 136.5 162 L 138.5 165 L 136.5 162 Z " /><path fill="rgb(113,158,187)" stroke="rgb(113,158,187)" stroke-width="1" opacity="0.47843137254901963" d="M 178.5 162 L 177.5 164 L 178.5 162 Z " /><path fill="rgb(113,158,187)" stroke="rgb(113,158,187)" stroke-width="1" opacity="0.47843137254901963" d="M 306.5 162 L 304.5 165 L 306.5 162 Z " /><path fill="rgb(113,158,187)" stroke="rgb(113,158,187)" stroke-width="1" opacity="0.47843137254901963" d="M 119.5 164 L 121 164.5 L 114.5 167 L 114.5 166 L 119.5 164 Z " /><path fill="rgb(113,158,187)" stroke="rgb(113,158,187)" stroke-width="1" opacity="0.47843137254901963" d="M 302.5 165 L 301.5 167 L 302.5 165 Z " /><path fill="rgb(113,158,187)" stroke="rgb(113,158,187)" stroke-width="1" opacity="0.47843137254901963" d="M 111.5 167 L 113 167.5 L 109.5 169 L 109.5 168 L 111.5 167 Z " /><path fill="rgb(113,158,187)" stroke="rgb(113,158,187)" stroke-width="1" opacity="0.47843137254901963" d="M 144.5 167 L 149 168.5 L 146.5 169 L 144.5 167 Z " /><path fill="rgb(113,158,187)" stroke="rgb(113,158,187)" stroke-width="1" opacity="0.47843137254901963" d="M 299.5 167 L 298.5 169 L 299.5 167 Z " /><path fill="rgb(113,158,187)" stroke="rgb(113,158,187)" stroke-width="1" opacity="0.47843137254901963" d="M 106.5 169 L 108 169.5 L 105.5 171 L 106.5 169 Z " /><path fill="rgb(113,158,187)" stroke="rgb(113,158,187)" stroke-width="1" opacity="0.47843137254901963" d="M 150.5 169 L 154 169.5 L 150.5 170 L 150.5 169 Z " /><path fill="rgb(113,158,187)" stroke="rgb(113,158,187)" stroke-width="1" opacity="0.47843137254901963" d="M 160.5 169 L 165 169.5 L 160.5 170 L 160.5 169 Z " /><path fill="rgb(113,158,187)" stroke="rgb(113,158,187)" stroke-width="1" opacity="0.47843137254901963" d="M 296.5 169 L 295.5 171 L 296.5 169 Z " /><path fill="rgb(113,158,187)" stroke="rgb(113,158,187)" stroke-width="1" opacity="0.47843137254901963" d="M 102.5 171 L 104 171.5 L 93.5 177 L 94.5 175 L 102.5 171 Z " /><path fill="rgb(113,158,187)" stroke="rgb(113,158,187)" stroke-width="1" opacity="0.47843137254901963" d="M 291.5 172 L 290.5 174 L 288.5 175 L 289.5 173 L 291.5 172 Z " /><path fill="rgb(113,158,187)" stroke="rgb(113,158,187)" stroke-width="1" opacity="0.47843137254901963" d="M 89.5 178 L 88.5 180 L 86.5 181 L 87.5 179 L 89.5 178 Z " /><path fill="rgb(113,158,187)" stroke="rgb(113,158,187)" stroke-width="1" opacity="0.47843137254901963" d="M 223.5 180 L 226 180.5 L 223.5 181 L 223.5 180 Z " /><path fill="rgb(113,158,187)" stroke="rgb(113,158,187)" stroke-width="1" opacity="0.47843137254901963" d="M 84.5 181 L 83.5 183 L 84.5 181 Z " /><path fill="rgb(113,158,187)" stroke="rgb(113,158,187)" stroke-width="1" opacity="0.47843137254901963" d="M 216.5 181 L 219 181.5 L 216.5 182 L 216.5 181 Z " /><path fill="rgb(113,158,187)" stroke="rgb(113,158,187)" stroke-width="1" opacity="0.47843137254901963" d="M 273.5 181 L 272.5 183 L 271 182.5 L 273.5 181 Z " /><path fill="rgb(113,158,187)" stroke="rgb(113,158,187)" stroke-width="1" opacity="0.47843137254901963" d="M 81.5 183 L 80.5 185 L 81.5 183 Z " /><path fill="rgb(113,158,187)" stroke="rgb(113,158,187)" stroke-width="1" opacity="0.47843137254901963" d="M 210.5 183 L 212 183.5 L 205.5 187 L 206.5 185 L 210.5 183 Z " /><path fill="rgb(113,158,187)" stroke="rgb(113,158,187)" stroke-width="1" opacity="0.47843137254901963" d="M 268.5 183 L 270 183.5 L 266.5 185 L 266.5 184 L 268.5 183 Z " /><path fill="rgb(113,158,187)" stroke="rgb(113,158,187)" stroke-width="1" opacity="0.47843137254901963" d="M 78.5 185 L 76.5 188 L 78.5 185 Z " /><path fill="rgb(113,158,187)" stroke="rgb(113,158,187)" stroke-width="1" opacity="0.47843137254901963" d="M 241.5 185 L 250 190.5 L 247.5 191 L 241.5 185 Z " /><path fill="rgb(113,158,187)" stroke="rgb(113,158,187)" stroke-width="1" opacity="0.47843137254901963" d="M 203.5 187 L 197.5 194 L 203.5 187 Z " /><path fill="rgb(113,158,187)" stroke="rgb(113,158,187)" stroke-width="1" opacity="0.47843137254901963" d="M 73.5 189 L 71.5 192 L 73.5 189 Z " /><path fill="rgb(113,158,187)" stroke="rgb(113,158,187)" stroke-width="1" opacity="0.47843137254901963" d="M 68.5 193 L 60.5 202 L 68.5 193 Z " /><path fill="rgb(113,158,187)" stroke="rgb(113,158,187)" stroke-width="1" opacity="0.47843137254901963" d="M 196.5 195 L 195.5 197 L 196.5 195 Z " /><path fill="rgb(113,158,187)" stroke="rgb(113,158,187)" stroke-width="1" opacity="0.47843137254901963" d="M 219.5 195 L 223 195.5 L 219.5 196 L 219.5 195 Z " /><path fill="rgb(113,158,187)" stroke="rgb(113,158,187)" stroke-width="1" opacity="0.47843137254901963" d="M 226.5 195 L 229 195.5 L 226.5 196 L 226.5 195 Z " /><path fill="rgb(113,158,187)" stroke="rgb(113,158,187)" stroke-width="1" opacity="0.47843137254901963" d="M 214.5 197 L 216 197.5 L 211.5 200 L 211.5 199 L 214.5 197 Z " /><path fill="rgb(113,158,187)" stroke="rgb(113,158,187)" stroke-width="1" opacity="0.47843137254901963" d="M 236.5 199 L 240.5 204 L 236.5 199 Z " /><path fill="rgb(113,158,187)" stroke="rgb(113,158,187)" stroke-width="1" opacity="0.47843137254901963" d="M 192.5 202 L 193 203.5 L 191.5 207 L 191 204.5 L 192.5 202 Z " /><path fill="rgb(113,158,187)" stroke="rgb(113,158,187)" stroke-width="1" opacity="0.47843137254901963" d="M 59.5 203 L 57.5 206 L 59.5 203 Z " /><path fill="rgb(113,158,187)" stroke="rgb(113,158,187)" stroke-width="1" opacity="0.47843137254901963" d="M 208.5 203 L 207.5 205 L 208.5 203 Z " /><path fill="rgb(113,158,187)" stroke="rgb(113,158,187)" stroke-width="1" opacity="0.47843137254901963" d="M 190.5 208 L 191 213.5 L 190 213.5 L 190.5 208 Z " /><path fill="rgb(113,158,187)" stroke="rgb(113,158,187)" stroke-width="1" opacity="0.47843137254901963" d="M 304.5 209 L 303.5 211 L 304.5 209 Z " /><path fill="rgb(113,158,187)" stroke="rgb(113,158,187)" stroke-width="1" opacity="0.47843137254901963" d="M 54.5 210 L 55 211.5 L 53.5 214 L 53 212.5 L 54.5 210 Z " /><path fill="rgb(113,158,187)" stroke="rgb(113,158,187)" stroke-width="1" opacity="0.47843137254901963" d="M 243.5 210 L 244 218.5 L 243 218.5 L 243.5 210 Z " /><path fill="rgb(113,158,187)" stroke="rgb(113,158,187)" stroke-width="1" opacity="0.47843137254901963" d="M 306.5 210 L 307 217.5 L 306 217.5 L 306.5 210 Z " /><path fill="rgb(113,158,187)" stroke="rgb(113,158,187)" stroke-width="1" opacity="0.47843137254901963" d="M 299.5 212 L 298.5 214 L 299.5 212 Z " /><path fill="rgb(113,158,187)" stroke="rgb(113,158,187)" stroke-width="1" opacity="0.47843137254901963" d="M 204.5 213 L 205 216.5 L 204 216.5 L 204.5 213 Z " /><path fill="rgb(113,158,187)" stroke="rgb(113,158,187)" stroke-width="1" opacity="0.47843137254901963" d="M 52.5 215 L 53 216.5 L 51.5 225 L 51 217.5 L 52.5 215 Z " /><path fill="rgb(113,158,187)" stroke="rgb(113,158,187)" stroke-width="1" opacity="0.47843137254901963" d="M 190.5 216 L 192 224.5 L 191 224.5 L 190.5 216 Z " /><path fill="rgb(113,158,187)" stroke="rgb(113,158,187)" stroke-width="1" opacity="0.47843137254901963" d="M 307.5 221 L 308 226.5 L 307 226.5 L 307.5 221 Z " /><path fill="rgb(113,158,187)" stroke="rgb(113,158,187)" stroke-width="1" opacity="0.47843137254901963" d="M 206.5 222 L 208 224.5 L 206 223.5 L 206.5 222 Z " /><path fill="rgb(113,158,187)" stroke="rgb(113,158,187)" stroke-width="1" opacity="0.47843137254901963" d="M 241.5 224 L 240.5 226 L 241.5 224 Z " /><path fill="rgb(113,158,187)" stroke="rgb(113,158,187)" stroke-width="1" opacity="0.47843137254901963" d="M 268.5 225 L 271 225.5 L 268.5 226 L 268.5 225 Z " /><path fill="rgb(113,158,187)" stroke="rgb(113,158,187)" stroke-width="1" opacity="0.47843137254901963" d="M 208.5 226 L 212.5 231 L 208.5 226 Z " /><path fill="rgb(113,158,187)" stroke="rgb(113,158,187)" stroke-width="1" opacity="0.47843137254901963" d="M 259.5 227 L 263 227.5 L 259.5 228 L 259.5 227 Z " /><path fill="rgb(113,158,187)" stroke="rgb(113,158,187)" stroke-width="1" opacity="0.47843137254901963" d="M 53.5 229 L 56 232.5 L 53 230.5 L 53.5 229 Z " /><path fill="rgb(113,158,187)" stroke="rgb(113,158,187)" stroke-width="1" opacity="0.47843137254901963" d="M 254.5 229 L 255 230.5 L 253 231.5 L 254.5 229 Z " /><path fill="rgb(113,158,187)" stroke="rgb(113,158,187)" stroke-width="1" opacity="0.47843137254901963" d="M 235.5 230 L 237 230.5 L 234.5 232 L 235.5 230 Z " /><path fill="rgb(113,158,187)" stroke="rgb(113,158,187)" stroke-width="1" opacity="0.47843137254901963" d="M 308.5 230 L 309 237.5 L 308 237.5 L 308.5 230 Z " /><path fill="rgb(113,158,187)" stroke="rgb(113,158,187)" stroke-width="1" opacity="0.47843137254901963" d="M 214.5 231 L 217 232.5 L 215.5 233 L 214.5 231 Z " /><path fill="rgb(113,158,187)" stroke="rgb(113,158,187)" stroke-width="1" opacity="0.47843137254901963" d="M 57.5 234 L 60.5 238 L 57.5 234 Z " /><path fill="rgb(113,158,187)" stroke="rgb(113,158,187)" stroke-width="1" opacity="0.47843137254901963" d="M 196.5 234 L 197.5 236 L 196.5 234 Z " /><path fill="rgb(113,158,187)" stroke="rgb(113,158,187)" stroke-width="1" opacity="0.47843137254901963" d="M 221.5 234 L 227 234.5 L 221.5 235 L 221.5 234 Z " /><path fill="rgb(113,158,187)" stroke="rgb(113,158,187)" stroke-width="1" opacity="0.47843137254901963" d="M 250.5 236 L 245.5 242 L 250.5 236 Z " /><path fill="rgb(113,158,187)" stroke="rgb(113,158,187)" stroke-width="1" opacity="0.47843137254901963" d="M 199.5 238 L 200.5 240 L 199.5 238 Z " /><path fill="rgb(113,158,187)" stroke="rgb(113,158,187)" stroke-width="1" opacity="0.47843137254901963" d="M 203.5 241 L 208 244.5 L 206.5 244 L 203.5 241 Z " /><path fill="rgb(113,158,187)" stroke="rgb(113,158,187)" stroke-width="1" opacity="0.47843137254901963" d="M 243.5 242 L 242.5 244 L 243.5 242 Z " /><path fill="rgb(113,158,187)" stroke="rgb(113,158,187)" stroke-width="1" opacity="0.47843137254901963" d="M 309.5 243 L 310 247.5 L 309 247.5 L 309.5 243 Z " /><path fill="rgb(113,158,187)" stroke="rgb(113,158,187)" stroke-width="1" opacity="0.47843137254901963" d="M 232.5 247 L 235 247.5 L 232.5 248 L 232.5 247 Z " /><path fill="rgb(113,158,187)" stroke="rgb(113,158,187)" stroke-width="1" opacity="0.47843137254901963" d="M 218.5 248 L 222 248.5 L 218.5 249 L 218.5 248 Z " /><path fill="rgb(113,158,187)" stroke="rgb(113,158,187)" stroke-width="1" opacity="0.47843137254901963" d="M 226.5 248 L 230 248.5 L 226.5 249 L 226.5 248 Z " /><path fill="rgb(113,158,187)" stroke="rgb(113,158,187)" stroke-width="1" opacity="0.47843137254901963" d="M 77.5 250 L 78 256.5 L 77 256.5 L 77.5 250 Z " /><path fill="rgb(113,158,187)" stroke="rgb(113,158,187)" stroke-width="1" opacity="0.47843137254901963" d="M 310.5 252 L 311 258.5 L 310 258.5 L 310.5 252 Z " /><path fill="rgb(113,158,187)" stroke="rgb(113,158,187)" stroke-width="1" opacity="0.47843137254901963" d="M 76.5 261 L 77 266.5 L 76 266.5 L 76.5 261 Z " /><path fill="rgb(113,158,187)" stroke="rgb(113,158,187)" stroke-width="1" opacity="0.47843137254901963" d="M 311.5 263 L 312 268.5 L 311 268.5 L 311.5 263 Z " /><path fill="rgb(113,158,187)" stroke="rgb(113,158,187)" stroke-width="1" opacity="0.47843137254901963" d="M 75.5 270 L 76 277.5 L 75 277.5 L 75.5 270 Z " /><path fill="rgb(113,158,187)" stroke="rgb(113,158,187)" stroke-width="1" opacity="0.47843137254901963" d="M 312.5 274 L 313 279.5 L 312 279.5 L 312.5 274 Z " /><path fill="rgb(113,158,187)" stroke="rgb(113,158,187)" stroke-width="1" opacity="0.47843137254901963" d="M 74.5 283 L 75 287.5 L 74 287.5 L 74.5 283 Z " /><path fill="rgb(113,158,187)" stroke="rgb(113,158,187)" stroke-width="1" opacity="0.47843137254901963" d="M 313.5 283 L 314 291 L 74 290.5 L 313 290 L 313.5 283 Z " /><path fill="rgb(113,158,187)" stroke="rgb(113,158,187)" stroke-width="1" opacity="0.47843137254901963" d="M 374.5 325 L 378 325.5 L 374.5 326 L 374.5 325 Z " /><path fill="rgb(5,86,157)" stroke="rgb(5,86,157)" stroke-width="1" opacity="0.996078431372549" d="M 246.5 63 L 249 63.5 L 246.5 64 L 246.5 63 Z " /><path fill="rgb(5,86,157)" stroke="rgb(5,86,157)" stroke-width="1" opacity="0.996078431372549" d="M 256.5 63 L 291.5 63 L 292 63.5 L 292 71.5 L 293 72.5 L 293 82.5 L 295 93.5 L 295 103.5 L 296.5 105 Q 306.4 105.6 313 109.5 L 310 110 L 309 112.5 L 311 114.5 L 310.5 118 L 321 126.5 L 326 136.5 L 326 142.5 L 312.5 158 L 294.5 171 L 270.5 183 Q 269 180.5 267.5 184 L 259.5 187 Q 258 184.5 256.5 188 L 247 190 L 247 188 Q 244 189 245 186 L 242 186 L 242 184.5 L 239.5 184 L 235.5 182 L 223.5 180 Q 222 182.5 216.5 181 L 212.5 183 L 210 182 Q 211.1 184.7 208.5 184 L 201 188 L 201 190 Q 198.3 188.9 199 191.5 L 194 200 L 192 200.5 L 192 202.5 L 190.5 208 Q 187.8 206.7 190 205.5 L 191 196.5 L 190 194 L 192 193.5 L 191.5 192 Q 194.8 193.1 194 190.5 L 194 188.5 L 195 186.5 L 195 184.5 L 194 179.5 L 197 177.5 Q 196.2 180.5 200 179 Q 198.8 176 202.5 177 L 204 176.5 L 203.5 178 L 210 173.5 L 206 172.5 L 210.5 171 L 214.5 172 L 214.5 171 L 212 170.5 Q 216.6 171.1 218 168.5 L 218.5 164 L 220 168 Q 223 169 222 166 L 226 166 L 226 162 Q 220.8 163.7 222 160 L 226.5 160 L 234 152.5 L 234 150.5 Q 232.9 147.2 235.5 148 L 238 144 L 243.5 143 L 248.5 149 Q 253.3 150.7 252 146.5 L 251 144.5 L 253 143.5 L 254.5 146 L 257 142.5 L 256 140 L 258.5 141 L 266 135.5 L 265.5 134 L 271 131 L 273 125.5 L 272 124.5 L 276 120.5 Q 275.3 118.3 277.5 119 L 281 120 L 283 115.5 Q 280.8 114.3 283.5 113 L 286 112.5 L 283 110.5 L 284 93.5 L 285 92.5 L 285 72.5 L 284 69.5 L 285 64.5 L 256.5 64 L 256.5 63 Z M 286 64 Q 285 67 288 66 Q 289 63 286 64 Z M 297 113 L 297 115 L 297 125 L 298 126 L 299 144 L 300 145 Q 298 150 302 149 Q 313 143 316 129 L 314 123 L 309 117 L 297 113 Z M 232 156 L 232 160 L 234 159 Q 235 155 232 156 Z M 230 164 Q 229 168 234 166 Q 235 162 230 164 Z M 232 168 L 232 169 L 234 169 L 232 168 Z M 202 178 L 201 180 L 203 179 L 202 178 Z M 195 179 Q 194 183 197 182 L 198 184 L 200 181 L 199 181 Q 196 182 197 179 L 195 179 Z " /><path fill="rgb(5,86,157)" stroke="rgb(5,86,157)" stroke-width="1" opacity="0.996078431372549" d="M 274.5 106 L 277.5 107 L 279 106.5 L 277 109.5 L 274.5 111 L 276 108.5 L 274.5 106 Z " /><path fill="rgb(5,86,157)" stroke="rgb(5,86,157)" stroke-width="1" opacity="0.996078431372549" d="M 266.5 112 L 268.5 113 L 270 112.5 L 269 116 L 271 116.5 L 269.5 117 L 266.5 112 Z " /><path fill="rgb(5,86,157)" stroke="rgb(5,86,157)" stroke-width="1" opacity="0.996078431372549" d="M 266.5 116 L 268 119.5 L 267 119.5 L 266.5 116 Z " /><path fill="rgb(5,86,157)" stroke="rgb(5,86,157)" stroke-width="1" opacity="0.996078431372549" d="M 261 122 Q 264 121 263 124 Q 260 125 261 122 Z " /><path fill="rgb(5,86,157)" stroke="rgb(5,86,157)" stroke-width="1" opacity="0.996078431372549" d="M 258 124 L 261 125.5 L 258 126 L 258 124 Z " /><path fill="rgb(5,86,157)" stroke="rgb(5,86,157)" stroke-width="1" opacity="0.996078431372549" d="M 259.5 127 L 258.5 129 L 259.5 127 Z " /><path fill="rgb(5,86,157)" stroke="rgb(5,86,157)" stroke-width="1" opacity="0.996078431372549" d="M 253.5 132 L 255 132.5 L 251 135.5 Q 251.8 137.8 249.5 137 L 250 135.5 L 251.5 133 L 253.5 132 Z " /><path fill="rgb(5,86,157)" stroke="rgb(5,86,157)" stroke-width="1" opacity="0.996078431372549" d="M 247.5 137 Q 250.5 138.5 247.5 140 L 245.5 141 L 247 138.5 L 247.5 137 Z " /><path fill="rgb(5,86,157)" stroke="rgb(5,86,157)" stroke-width="1" opacity="0.996078431372549" d="M 243.5 138 L 244 139.5 L 242.5 142 L 242 140.5 L 243.5 138 Z " /><path fill="rgb(5,86,157)" stroke="rgb(5,86,157)" stroke-width="1" opacity="0.996078431372549" d="M 191.5 140 L 192 153.5 Q 190.4 163.9 185 170.5 L 186 172.5 L 185 172.5 L 184.5 171 L 183 174 L 181 174.5 L 181.5 176 L 179.5 176 L 172 181.5 L 172.5 183 L 168.5 182 L 165.5 184 Q 160.8 182.8 159.5 185 L 147.5 185 Q 146.3 182.8 141.5 184 L 134.5 180 L 129.5 179 L 96.5 193 L 82.5 201 L 71 211.5 L 67 217.5 L 66 225.5 L 67 227.5 L 65 226.5 L 63 223.5 L 64 221.5 L 62.5 222 Q 60.3 222.8 61 220.5 L 58 215.5 L 57 210.5 L 58 208.5 L 57 206.5 L 69.5 193 Q 86.3 178.3 108.5 169 L 130.5 161 L 134.5 161 Q 142.7 172.3 164.5 170 L 171.5 167 L 173 167.5 Q 172.3 165.3 174.5 166 L 186 157 L 187 152 Q 189.7 153.1 189 150.5 L 191 144.5 L 191.5 140 Z " /><path fill="rgb(5,86,157)" stroke="rgb(5,86,157)" stroke-width="1" opacity="0.996078431372549" d="M 173.5 146 L 172.5 148 L 173.5 146 Z " /><path fill="rgb(5,86,157)" stroke="rgb(5,86,157)" stroke-width="1" opacity="0.996078431372549" d="M 154.5 154 L 157 154.5 L 154.5 155 L 154.5 154 Z " /><path fill="rgb(5,86,157)" stroke="rgb(5,86,157)" stroke-width="1" opacity="0.996078431372549" d="M 159.5 154 L 162 154.5 L 159.5 155 L 159.5 154 Z " /><path fill="rgb(5,86,157)" stroke="rgb(5,86,157)" stroke-width="1" opacity="0.996078431372549" d="M 192.5 165 L 194 167.5 L 191 167.5 L 192.5 165 Z " /><path fill="rgb(5,86,157)" stroke="rgb(5,86,157)" stroke-width="1" opacity="0.996078431372549" d="M 204 169 L 206 169.5 L 203 171.5 L 204 169 Z " /><path fill="rgb(5,86,157)" stroke="rgb(5,86,157)" stroke-width="1" opacity="0.996078431372549" d="M 186 191 L 190 191.5 L 188.5 193 L 186 192.5 L 186 191 Z " /><path fill="rgb(5,86,157)" stroke="rgb(5,86,157)" stroke-width="1" opacity="0.996078431372549" d="M 184 194 L 187.5 195 L 189 194.5 L 187.5 197 L 186 196.5 L 188 199.5 L 182 204.5 L 182 207 L 179 207 Q 180.5 210.8 177.5 210 L 174 215 L 170 216 L 170 220 L 171.5 220 L 177 224 L 176 220.5 L 177.5 218 L 180 219 L 180.5 221 Q 182.8 220.3 182 216.5 L 181.5 215 L 187 213.5 L 184 211.5 Q 186 208 188 212.5 L 188.5 217 L 189.5 210 Q 189.3 230.7 200.5 240 Q 209.3 250.2 229.5 249 Q 243.5 246 251 236.5 L 255 229 Q 285.1 224.5 305.5 209 L 313 290 L 74.5 290 L 74 288.5 L 75 287.5 L 76 267.5 L 78 256.5 L 78 246.5 L 80 243.5 L 80 241.5 L 79.5 240 L 78 244 L 72 242.5 L 76 242 Q 74.9 239.3 77.5 240 L 78.5 238 L 71 233.5 L 73.5 235 L 79.5 237 L 80 234.5 L 81 216 L 88.5 220 L 114.5 227 L 129.5 228 L 130.5 229 L 145.5 229 L 152 227.5 L 146 226.5 L 158 224.5 L 155 223.5 L 162 216.5 L 161.5 215 L 164.5 216 Q 169.3 217.3 168 214 L 165 213.5 L 170 208.5 L 170 206.5 L 170 204 L 177.5 204 L 178 202.5 L 179 200 Q 181.7 198.9 181 201.5 L 180.5 203 L 184 200.5 L 182 200 L 184 194 Z M 174 210 L 170 215 L 175 211 L 174 210 Z M 83 222 Q 80 226 84 225 L 83 222 Z M 168 224 L 168 225 L 170 225 L 168 224 Z M 155 227 L 155 228 L 157 228 L 155 227 Z M 82 232 L 81 235 L 82 235 L 82 232 Z M 129 261 L 130 263 Q 131 260 129 261 Z M 125 263 Q 124 266 127 265 Q 128 262 125 263 Z M 124 266 L 121 268 L 125 268 L 124 266 Z M 118 271 L 119 273 Q 120 270 118 271 Z M 120 273 L 122 276 L 122 275 L 120 273 Z M 112 282 Q 110 285 113 284 L 112 282 Z M 107 283 L 108 285 Q 109 282 107 283 Z M 107 287 L 106 289 L 109 289 L 107 287 Z " /><path fill="rgb(5,86,157)" stroke="rgb(5,86,157)" stroke-width="1" opacity="0.996078431372549" d="M 223.5 195 L 234.5 198 L 241 204.5 Q 245 209.5 243 220.5 L 236.5 230 Q 231.8 235.3 220.5 234 Q 212.2 231.9 208 225.5 Q 203.5 221 205 210.5 L 210.5 201 L 218.5 196 L 223.5 195 Z M 220 204 L 219 206 L 222 205 L 220 204 Z M 210 205 L 208 208 L 210 207 L 210 205 Z " /><path fill="rgb(5,86,157)" stroke="rgb(5,86,157)" stroke-width="1" opacity="0.996078431372549" d="M 178 196 Q 181 195 180 198 Q 177 199 178 196 Z " /><path fill="rgb(5,86,157)" stroke="rgb(5,86,157)" stroke-width="1" opacity="0.996078431372549" d="M 179.5 212 L 178.5 214 L 179.5 212 Z " /><path fill="rgb(5,86,157)" stroke="rgb(5,86,157)" stroke-width="1" opacity="0.996078431372549" d="M 67.5 229 L 69.5 232 Q 67.3 232.8 68 230.5 L 67.5 229 Z " /></svg>